<svg
      id="Layer_1"
      xmlns="http://www.w3.org/2000/svg"
      x={0}
      y={0}
      viewBox="0 0 256 256"
      xmlSpace="preserve"
      {...props}
    >
      <style>{".st0{fill:#382b73}"}</style>
      <switch>
        <g>
          <circle className="st0" cx={128} cy={128} r={120} />
          <circle cx={128} cy={128} r={102.5} fill="#473080" />
          <path
            className="st0"
            d="M191.409 115.092h-49.396v-24.41a7.135 7.135 0 00-7.135-7.135H64.591a7.136 7.136 0 00-7.135 7.135v66.093c0 1.271 1.537 1.908 2.436 1.009l15.387-15.386h38.709v24.41a7.134 7.134 0 007.135 7.135h59.599l15.387 15.387c.899.899 2.436.262 2.436-1.009v-66.093a7.136 7.136 0 00-7.136-7.136z"
          />
          <path
            d="M121.122 112.449h70.287a7.136 7.136 0 017.135 7.135v61.736c0 1.271-1.537 1.908-2.436 1.009l-15.387-15.386h-59.599a7.135 7.135 0 01-7.135-7.135v-40.223a7.136 7.136 0 017.135-7.136z"
            fill="#e43d91"
          />
          <path
            d="M121.122 108.092h70.287a7.135 7.135 0 017.135 7.135v60.309c0 1.271-1.537 1.908-2.436 1.009l-13.96-13.96h-61.026a7.136 7.136 0 01-7.135-7.135v-40.223a7.135 7.135 0 017.135-7.135z"
            fill="#ef5a9d"
          />
          <path
            d="M134.878 80.904H64.591a7.136 7.136 0 00-7.135 7.135v61.736c0 1.271 1.537 1.908 2.436 1.009l15.387-15.387h59.6a7.135 7.135 0 007.135-7.135V88.039a7.137 7.137 0 00-7.136-7.135z"
            fill="#009add"
          />
          <path
            d="M134.878 76.547H64.591a7.136 7.136 0 00-7.135 7.135v60.309c0 1.271 1.537 1.908 2.436 1.009l13.96-13.96h61.027a7.135 7.135 0 007.135-7.135V83.682a7.137 7.137 0 00-7.136-7.135z"
            fill="#1caee4"
          />
          <path
            d="M113.923 118.359L101.93 86.668a.986.986 0 00-.923-.637H98.46a.988.988 0 00-.923.637l-11.993 31.691a.987.987 0 00.923 1.336h2.808a.985.985 0 00.926-.647l3.028-8.255h13.011l3.049 8.257a.985.985 0 00.925.645H113a.988.988 0 00.923-1.336zm-9.258-11.803h-9.882l4.941-13.419 4.941 13.419zm68.327 15.924h-11.596v-2.033a2.614 2.614 0 00-5.228 0v2.033h-11.597a2.614 2.614 0 000 5.228h20.904c-1.325 3.444-3.576 6.945-6.697 10.433-1.641-1.835-3.044-3.679-4.203-5.525a30.93 30.93 0 01-1.303-2.279 2.614 2.614 0 00-4.646 2.396 36.34 36.34 0 001.523 2.662c1.366 2.175 3.021 4.336 4.957 6.475-2.478 2.302-5.328 4.588-8.536 6.835a2.615 2.615 0 003 4.281c3.443-2.413 6.517-4.888 9.204-7.402 2.687 2.509 5.765 4.981 9.221 7.402a2.61 2.61 0 003.641-.64 2.614 2.614 0 00-.641-3.641c-3.217-2.254-6.071-4.539-8.552-6.844 4.217-4.666 7.106-9.43 8.558-14.154h1.991a2.614 2.614 0 000-5.227z"
            fill="#fff"
          />
        </g>
      </switch>
    </svg>